<svg width="11" height="14" viewBox="0 0 11 14" fill="none" xmlns="http://www.w3.org/2000/svg">
<path d="M5.49659 0C4.88359 0 4.47492 0.460094 4.47492 1.13928V9.09233L4.53622 10.6771L3.25573 9.08503L1.70279 7.41993C1.51889 7.22274 1.2805 7.07668 0.973994 7.07668C0.422291 7.07668 0 7.50756 0 8.13563C0 8.42045 0.108978 8.69066 0.320124 8.92436L4.74056 13.6714C4.93127 13.8758 5.21734 14 5.49659 14C5.77585 14 6.06192 13.8758 6.25263 13.6714L10.6799 8.92436C10.891 8.69066 11 8.42045 11 8.13563C11 7.50756 10.5777 7.07668 10.026 7.07668C9.7195 7.07668 9.48111 7.22274 9.2904 7.41993L7.73746 9.08503L6.45697 10.6771L6.52508 9.09233V1.13928C6.52508 0.460094 6.1096 0 5.49659 0Z" fill="#8E8E93"/>
</svg>
